<?xml version="1.0" encoding="UTF-8" standalone="no"?>
<svg
   xmlns:dc="http://purl.org/dc/elements/1.1/"
   xmlns:cc="http://creativecommons.org/ns#"
   xmlns:rdf="http://www.w3.org/1999/02/22-rdf-syntax-ns#"
   xmlns:svg="http://www.w3.org/2000/svg"
   xmlns="http://www.w3.org/2000/svg"
   viewBox="0, 0, 400,154.2"
   height="154.2"
   width="400"
   version="1.1"
   id="svg">
  <metadata
     id="metadata10">
    <rdf:RDF>
      <cc:Work
         rdf:about="">
        <dc:format>image/svg+xml</dc:format>
        <dc:type
           rdf:resource="http://purl.org/dc/dcmitype/StillImage" />
        <dc:title></dc:title>
      </cc:Work>
    </rdf:RDF>
  </metadata>
  <defs
     id="defs8" />
  <g
     id="svgg">
    <path
       fill-rule="evenodd"
       fill="#d21d25"
       stroke="none"
       d="M188.000 0.179 C 137.563 3.626,101.419 27.627,102.556 56.917 C 104.187 98.935,180.413 124.883,242.417 104.527 C 294.925 87.288,306.919 45.421,267.000 18.714 C 247.407 5.607,216.090 -1.742,188.000 0.179 M149.333 18.915 C 174.918 21.686,194.078 35.859,197.103 54.250 C 199.124 66.540,191.828 80.017,181.720 82.664 C 177.143 83.863,172.000 81.638,172.000 78.459 C 172.000 76.930,172.783 76.482,175.750 76.313 C 181.079 76.010,183.374 73.765,183.405 68.826 C 183.432 64.446,180.585 61.725,174.667 60.476 C 171.766 59.864,162.983 59.892,162.231 60.516 C 162.037 60.677,162.000 63.277,162.000 76.688 L 162.000 92.669 149.208 92.626 L 136.417 92.583 136.417 55.667 L 136.417 18.750 137.000 18.635 C 137.993 18.438,146.776 18.638,149.333 18.915 M258.125 18.608 L 259.000 18.713 259.000 55.691 L 259.000 92.669 246.208 92.626 L 233.417 92.583 233.333 76.502 L 233.250 60.421 232.417 60.271 C 230.487 59.925,222.555 60.060,220.667 60.472 C 214.354 61.848,211.331 65.174,211.984 70.025 C 212.543 74.185,214.834 76.063,219.667 76.322 C 223.596 76.533,224.773 78.445,222.398 80.758 C 216.900 86.114,206.392 81.609,201.183 71.664 C 192.537 55.157,201.717 35.353,222.667 25.315 C 230.581 21.523,240.052 19.187,249.833 18.615 C 251.637 18.510,257.266 18.505,258.125 18.608 M170.292 37.694 C 169.157 38.108,170.230 39.297,172.309 39.928 C 174.897 40.714,176.094 39.392,173.833 38.244 C 172.554 37.595,171.157 37.378,170.292 37.694 M223.417 37.613 C 220.462 38.275,219.155 40.167,221.652 40.167 C 223.303 40.167,225.842 38.818,225.563 38.090 C 225.375 37.602,224.418 37.389,223.417 37.613 M169.239 52.885 C 169.194 53.003,169.178 54.183,169.204 55.508 L 169.250 57.917 179.250 57.954 C 185.768 57.978,189.154 57.935,188.974 57.830 C 188.823 57.741,187.098 57.253,185.141 56.746 C 178.746 55.089,172.443 53.474,171.083 53.143 C 170.350 52.965,169.653 52.786,169.535 52.746 C 169.417 52.705,169.284 52.768,169.239 52.885 M224.167 53.162 C 214.590 55.601,206.124 57.821,206.028 57.917 C 205.982 57.963,210.494 58.000,216.056 58.000 L 226.167 58.000 226.167 55.427 C 226.167 52.399,226.350 52.606,224.167 53.162 M8.943 118.291 C 8.899 118.362,8.591 119.656,8.258 121.168 C 5.508 133.661,2.878 144.126,0.908 150.417 C 0.478 151.792,0.089 153.048,0.043 153.208 C -0.033 153.481,0.243 153.500,4.210 153.500 C 9.008 153.500,8.700 153.592,8.970 152.083 C 9.703 147.991,14.048 130.159,14.260 130.372 C 14.466 130.577,15.425 144.531,15.643 150.500 L 15.750 153.417 20.844 153.461 L 25.938 153.505 26.501 152.211 C 27.335 150.299,36.977 131.000,37.100 131.000 C 37.338 131.000,34.156 147.448,33.295 150.667 C 33.014 151.721,32.748 152.790,32.706 153.042 L 32.629 153.500 36.902 153.500 L 41.175 153.500 41.314 153.125 C 41.390 152.919,41.581 151.737,41.739 150.500 C 42.014 148.339,47.016 122.769,47.678 120.139 C 48.236 117.926,48.944 118.166,41.875 118.169 C 38.506 118.171,35.663 118.227,35.557 118.295 C 35.450 118.362,34.911 119.405,34.359 120.611 C 33.806 121.817,32.422 124.629,31.283 126.860 C 30.144 129.091,27.953 133.392,26.415 136.417 C 24.877 139.442,23.592 141.948,23.559 141.986 C 23.355 142.224,23.250 141.431,23.056 138.206 C 22.936 136.214,22.649 131.508,22.419 127.750 C 22.188 123.992,21.981 120.317,21.958 119.583 L 21.917 118.250 15.469 118.206 C 11.923 118.182,8.986 118.220,8.943 118.291 M102.525 118.458 C 102.441 118.619,102.321 119.087,102.259 119.500 C 101.132 126.992,98.372 140.501,96.254 148.894 C 95.656 151.265,95.167 153.271,95.167 153.352 C 95.167 153.534,103.782 153.552,103.894 153.370 C 103.938 153.299,104.246 151.668,104.579 149.745 C 106.912 136.276,109.202 132.333,114.691 132.333 C 118.743 132.333,118.761 134.489,114.846 150.483 C 114.478 151.986,114.217 153.280,114.265 153.358 C 114.382 153.546,122.788 153.542,122.904 153.354 C 122.954 153.273,123.262 151.653,123.589 149.753 C 123.915 147.854,124.661 143.889,125.245 140.942 C 127.104 131.560,127.089 129.855,125.130 127.729 C 122.468 124.842,114.719 124.439,110.200 126.954 C 109.622 127.275,109.107 127.496,109.055 127.444 C 108.939 127.328,109.622 124.229,110.493 120.924 C 110.853 119.556,111.110 118.376,111.064 118.302 C 110.874 117.994,102.690 118.144,102.525 118.458 M227.708 118.375 C 227.616 118.490,227.455 119.108,227.349 119.750 C 227.116 121.168,226.027 126.857,225.228 130.833 C 223.851 137.691,221.456 148.037,220.430 151.560 C 220.193 152.373,220.000 153.141,220.000 153.269 C 220.000 153.460,220.794 153.500,224.650 153.500 L 229.299 153.500 229.480 152.458 C 229.579 151.885,229.742 150.817,229.843 150.083 C 230.231 147.249,231.916 139.419,232.222 139.029 C 232.361 138.852,233.715 138.816,239.198 138.848 C 242.940 138.870,246.036 138.853,246.078 138.811 C 246.158 138.731,247.454 132.689,247.610 131.667 L 247.699 131.083 240.766 131.141 C 236.953 131.172,233.833 131.158,233.833 131.110 C 233.833 130.885,234.372 128.443,234.696 127.195 L 235.058 125.806 242.776 125.850 C 247.022 125.874,250.553 125.837,250.623 125.767 C 250.693 125.698,250.869 125.066,251.015 124.362 C 251.161 123.659,251.491 122.098,251.748 120.893 C 252.006 119.688,252.170 118.582,252.113 118.435 C 251.976 118.076,227.993 118.018,227.708 118.375 M254.676 118.324 C 254.533 118.414,254.251 119.350,253.986 120.613 C 253.738 121.788,253.409 123.336,253.254 124.051 C 253.099 124.767,253.013 125.461,253.064 125.593 C 253.173 125.878,261.236 125.958,261.411 125.676 C 261.464 125.590,261.692 124.596,261.917 123.468 C 262.143 122.340,262.474 120.746,262.654 119.927 C 262.834 119.107,262.943 118.376,262.897 118.302 C 262.782 118.115,254.973 118.136,254.676 118.324 M90.333 120.846 C 88.912 121.109,87.225 121.421,86.583 121.540 L 85.417 121.755 85.192 122.753 C 85.068 123.301,84.843 124.237,84.691 124.833 L 84.414 125.917 82.584 125.964 C 80.347 126.023,80.641 125.651,79.856 129.415 C 79.076 133.153,78.977 132.833,80.917 132.833 C 81.777 132.833,82.515 132.890,82.557 132.958 C 82.648 133.108,80.747 141.948,79.918 145.228 C 78.281 151.703,79.927 153.953,86.427 154.128 C 88.983 154.196,92.366 153.875,92.694 153.532 C 92.783 153.438,93.850 150.546,95.177 146.796 C 95.475 145.956,95.513 145.962,93.253 146.513 C 89.724 147.374,88.556 147.133,88.612 145.556 C 88.636 144.863,89.484 140.749,90.874 134.583 L 91.250 132.917 94.369 132.871 L 97.489 132.826 97.656 132.205 C 97.964 131.058,98.833 126.754,98.833 126.375 C 98.833 126.000,98.830 126.000,95.917 126.000 L 93.000 126.000 93.000 125.623 C 93.000 125.415,93.224 124.234,93.497 122.998 C 93.771 121.761,93.996 120.656,93.997 120.542 C 94.001 120.240,93.277 120.300,90.333 120.846 M200.167 120.986 C 195.905 121.762,195.833 121.780,195.833 122.105 C 195.833 122.252,195.682 123.019,195.496 123.811 C 195.311 124.602,195.122 125.419,195.077 125.625 C 194.997 125.986,194.925 126.000,193.184 126.000 C 190.978 126.000,191.206 125.721,190.447 129.350 C 189.635 133.230,189.513 132.833,191.519 132.833 L 193.204 132.833 193.096 133.458 C 192.821 135.048,191.367 141.593,190.552 144.917 C 189.082 150.905,190.076 153.161,194.559 154.011 C 196.623 154.403,202.752 154.009,203.271 153.451 C 203.470 153.237,206.038 146.149,205.949 146.060 C 205.920 146.031,205.011 146.230,203.930 146.504 C 200.412 147.392,199.167 147.154,199.167 145.595 C 199.167 145.039,200.773 137.340,201.750 133.212 C 201.836 132.846,201.886 132.840,204.949 132.795 L 208.060 132.750 208.195 132.250 C 208.588 130.802,209.486 126.279,209.406 126.150 C 209.355 126.067,208.006 126.000,206.407 126.000 C 204.808 126.000,203.500 125.944,203.500 125.875 C 203.500 125.806,203.724 124.662,203.997 123.333 C 204.271 122.004,204.496 120.785,204.497 120.625 C 204.501 120.226,204.204 120.251,200.167 120.986 M306.250 125.329 C 302.106 125.664,298.573 126.510,298.356 127.220 C 297.184 131.058,296.149 134.704,296.214 134.769 C 296.259 134.814,297.080 134.516,298.040 134.106 C 304.458 131.364,309.883 131.029,309.433 133.402 C 309.219 134.531,307.940 135.101,301.917 136.748 C 294.865 138.677,292.562 140.315,291.340 144.269 C 289.297 150.881,293.787 155.245,301.277 153.927 C 303.859 153.472,303.854 153.475,304.412 152.208 C 305.566 149.584,306.238 148.267,306.292 148.522 C 306.362 148.851,305.771 151.221,305.330 152.382 C 304.888 153.546,304.712 153.500,309.587 153.500 C 314.659 153.500,314.167 153.692,314.491 151.583 C 314.604 150.850,314.880 149.350,315.106 148.250 C 315.331 147.150,315.970 144.037,316.525 141.333 C 317.080 138.629,317.684 135.667,317.868 134.750 C 319.369 127.278,315.996 124.543,306.250 125.329 M141.393 125.677 C 133.279 127.382,128.001 134.379,128.000 143.432 C 127.999 150.457,132.110 154.170,139.883 154.165 C 149.872 154.159,156.627 147.428,157.278 136.833 C 157.794 128.445,150.983 123.662,141.393 125.677 M172.000 125.652 C 163.733 127.479,158.643 134.162,158.596 143.250 C 158.558 150.761,162.727 154.391,171.083 154.120 C 179.428 153.851,185.021 149.310,187.184 141.048 C 189.197 133.355,186.769 127.751,180.606 125.870 C 178.712 125.291,174.154 125.176,172.000 125.652 M277.750 125.729 C 276.060 126.177,275.469 126.416,274.193 127.167 L 273.303 127.690 273.360 126.887 L 273.417 126.083 269.481 126.039 C 264.815 125.986,265.355 125.628,264.764 129.167 C 263.854 134.622,262.238 142.210,260.574 148.847 C 259.983 151.201,259.500 153.212,259.500 153.314 C 259.500 153.546,268.098 153.579,268.241 153.348 C 268.293 153.264,268.489 152.233,268.676 151.056 C 270.909 137.040,273.300 132.562,278.654 132.369 C 282.446 132.232,282.828 133.521,281.259 141.167 C 280.567 144.541,280.208 146.147,279.019 151.163 C 278.749 152.306,278.563 153.300,278.607 153.371 C 278.713 153.543,287.124 153.538,287.230 153.366 C 287.276 153.292,287.471 152.260,287.665 151.074 C 288.057 148.670,288.394 146.885,289.839 139.543 C 291.440 131.410,291.311 129.329,289.082 127.367 C 286.954 125.494,281.572 124.716,277.750 125.729 M335.734 125.742 C 334.242 126.127,333.340 126.510,332.143 127.265 C 331.407 127.730,331.353 127.689,331.460 126.743 L 331.543 126.000 327.532 126.000 C 325.117 126.000,323.480 126.064,323.420 126.162 C 323.365 126.251,323.094 127.657,322.818 129.287 C 321.833 135.112,319.995 143.690,318.435 149.750 C 317.939 151.675,317.568 153.306,317.610 153.375 C 317.652 153.444,319.630 153.500,322.007 153.500 L 326.327 153.500 326.414 153.125 C 326.461 152.919,326.651 151.775,326.836 150.583 C 328.888 137.352,331.438 132.588,336.589 132.363 C 341.188 132.161,341.248 133.821,337.241 150.468 C 336.925 151.780,336.667 152.998,336.667 153.176 C 336.667 153.488,336.821 153.500,340.911 153.500 C 345.808 153.500,345.351 153.684,345.665 151.583 C 345.931 149.796,347.508 141.460,348.265 137.833 C 349.960 129.714,348.718 126.751,343.127 125.575 C 341.252 125.181,337.584 125.263,335.734 125.742 M364.167 125.574 C 356.950 126.897,352.341 131.708,350.747 139.582 C 348.424 151.058,356.151 156.846,368.826 153.124 L 369.569 152.906 370.781 149.161 C 371.448 147.102,371.995 145.352,371.997 145.273 C 372.001 145.070,371.204 145.210,368.951 145.809 C 361.157 147.880,357.631 145.528,359.242 139.333 C 360.700 133.729,364.708 131.753,371.248 133.413 C 372.590 133.754,373.733 133.990,373.786 133.937 C 373.921 133.801,375.000 127.402,375.000 126.734 C 375.000 125.853,367.201 125.018,364.167 125.574 M387.333 125.581 C 380.127 127.019,375.129 132.636,373.909 140.667 C 372.371 150.794,378.475 155.752,389.942 153.687 C 393.714 153.008,393.505 153.112,394.035 151.643 C 394.278 150.969,394.964 149.142,395.557 147.583 C 396.799 144.327,396.839 144.436,394.710 145.301 C 390.367 147.066,385.497 147.132,383.694 145.450 C 382.810 144.625,382.269 142.051,382.803 141.210 C 382.904 141.051,384.787 140.993,390.925 140.960 L 398.917 140.917 399.390 139.083 C 401.870 129.465,396.728 123.706,387.333 125.581 M50.581 126.208 C 50.539 126.323,50.321 127.542,50.096 128.917 C 49.655 131.613,49.188 134.068,48.144 139.167 C 46.535 147.027,46.478 148.731,47.752 150.905 C 49.877 154.531,57.861 155.390,63.141 152.560 L 64.532 151.815 64.474 152.616 L 64.417 153.417 68.499 153.417 L 72.581 153.417 72.874 151.667 C 74.025 144.793,75.610 137.151,77.169 130.960 C 77.809 128.417,78.333 126.261,78.333 126.168 C 78.333 126.059,76.808 126.000,73.996 126.000 L 69.660 126.000 69.511 126.375 C 69.430 126.581,69.240 127.650,69.089 128.750 C 67.343 141.492,64.514 146.859,59.401 147.129 C 54.772 147.374,54.689 145.054,58.739 128.591 C 59.053 127.312,59.274 126.205,59.229 126.132 C 59.083 125.896,50.667 125.970,50.581 126.208 M252.792 127.448 C 252.631 127.490,252.500 127.567,252.500 127.619 C 252.500 129.070,249.148 145.154,247.586 151.200 C 247.285 152.364,247.080 153.358,247.131 153.408 C 247.272 153.550,256.000 153.517,255.999 153.375 C 255.994 152.637,258.932 137.448,260.084 132.250 C 261.081 127.757,261.096 127.663,260.816 127.486 C 260.583 127.338,253.341 127.305,252.792 127.448 M390.500 132.292 C 391.165 132.624,391.666 133.484,391.666 134.292 L 391.667 134.833 388.167 134.833 C 384.214 134.833,384.215 134.834,385.264 133.673 C 386.586 132.210,389.040 131.563,390.500 132.292 M145.971 132.757 C 148.095 133.388,148.858 135.717,148.179 139.500 C 147.299 144.403,144.837 147.000,141.072 147.000 C 137.704 147.000,136.312 145.016,136.837 140.964 C 137.642 134.755,141.382 131.394,145.971 132.757 M176.447 132.750 C 178.405 133.331,178.924 134.267,178.897 137.167 C 178.840 143.265,176.132 146.915,171.667 146.913 C 168.442 146.911,167.234 145.651,167.280 142.333 C 167.373 135.672,171.557 131.297,176.447 132.750 M307.942 141.958 C 307.898 142.119,307.698 142.962,307.496 143.833 C 307.295 144.704,307.077 145.604,307.012 145.833 C 306.907 146.207,306.679 146.306,304.822 146.791 C 301.330 147.703,299.575 147.418,299.616 145.946 C 299.659 144.426,300.261 144.027,304.583 142.654 C 307.994 141.570,308.052 141.558,307.942 141.958 "
       id="path0" />
  </g>
</svg>
